<svg xmlns="http://www.w3.org/2000/svg" viewBox="0 0 200 40" fill="none">
  <path d="M0 28.5V11h4.2v17.2c0 3.4 1.6 5.1 4.4 5.1 2.8 0 4.4-1.7 4.4-5.1V11h4.2v17.5c0 5.7-3.4 8.9-8.6 8.9S0 34.2 0 28.5Z" fill="#1A202C"/>
  <path d="M19.8 11h4l6.4 16.6h.1L36.6 11h3.8l-8.7 21.8h-2.9L19.8 11Z" fill="#1A202C"/>
  <path d="M42.5 11h4.2v21.4h-4.2V11Z" fill="#1A202C"/>
  <path d="M49.7 11h4l10.4 16.4h.1V11h4.1v21.4h-4L54 16h-.1v16.4h-4.2V11Z" fill="#1A202C"/>
  <path d="M72.4 11h15.5v3.6H76.6v5.3h10.5v3.6H76.6v5.4h11.5v3.5H72.4V11Z" fill="#1A202C"/>
  <path d="M91.2 11h7.8c4.6 0 7.7 2.3 7.7 6.8 0 3.1-1.5 5.3-4.2 6.3l4.8 8.3h-4.8l-4.3-7.7h-2.8v7.7h-4.2V11Zm7.4 10.3c2.5 0 3.9-1.2 3.9-3.4 0-2.1-1.4-3.3-3.9-3.3h-3.2v6.7h3.2Z" fill="#1A202C"/>
  <path d="M109.6 11h4.2v21.4h-4.2V11Z" fill="#1A202C"/>
  <path d="M117.3 32.4V11h4.2v18h9.2v3.4h-13.4Z" fill="#1A202C"/>
  <circle cx="188" cy="20" r="12" fill="#FF6B35"/>
  <path d="M182.5 15.5h3v9h-3v-9Z" fill="#fff"/>
  <path d="M187.5 15.5h3v9h-3v-9Z" fill="#fff"/>
  <path d="M192.5 15.5h3v9h-3v-9Z" fill="#fff"/>
</svg>
